<svg width="60" height="48" viewBox="0 0 70 56" fill="none" xmlns="http://www.w3.org/2000/svg">
<path fill-rule="evenodd" clip-rule="evenodd" d="M63.1534 10.156C65.0418 10.156 66.7722 10.9379 68.0005 12.1812C69.2352 13.4181 70 15.1527 70 17.039V48.9286C70 50.8149 69.2352 52.5473 68.0005 53.7864C66.7722 55.0297 65.0419 55.8116 63.1534 55.8094H37.7151H6.8466C4.95824 55.8116 3.22574 55.0297 1.99527 53.7864C0.764805 52.5474 0 50.8149 0 48.9286V17.039C0 15.1527 0.764805 13.4202 1.99527 12.1813C3.22574 10.938 4.95811 10.1561 6.8466 10.1561H14.257C14.8531 10.1582 15.4107 9.80148 15.667 9.22467L17.8845 4.25576V4.25357C18.9846 1.79264 21.4263 0.19043 24.1351 0.19043H45.8649C48.5736 0.19043 51.0154 1.7925 52.1134 4.25563L54.3329 9.22453C54.5892 9.80135 55.1469 10.1582 55.7428 10.156H63.1534ZM64.245 50.0608C64.5312 49.766 64.7064 49.3816 64.7064 48.9286H64.7065V17.0388C64.7065 16.5881 64.5314 16.2014 64.2451 15.9067C63.9503 15.6161 63.583 15.4517 63.1535 15.4495H55.743C53.0385 15.4495 50.5947 13.8452 49.4987 11.3821L47.2813 6.41113C47.0229 5.83856 46.4674 5.48186 45.865 5.48186H24.1352C23.5329 5.48186 22.9774 5.83869 22.7168 6.41332L20.5036 11.38C19.4054 13.8454 16.9616 15.4496 14.2572 15.4496H6.8466C6.41512 15.4518 6.04557 15.6163 5.75504 15.9068C5.46875 16.2016 5.29361 16.586 5.29361 17.039V48.9286C5.29361 49.3814 5.46875 49.766 5.75504 50.0608C6.04557 50.3493 6.41512 50.5158 6.8466 50.518H37.7151H63.1534C63.5827 50.5158 63.9502 50.3491 64.245 50.0608ZM27.9462 31.9862C27.9462 28.0555 31.1035 24.8704 35 24.8704C38.8965 24.8704 42.0539 28.0555 42.0539 31.9862C42.0539 35.919 38.8965 39.102 35 39.102C31.1035 39.102 27.9462 35.919 27.9462 31.9862ZM35 16.3704C30.7189 16.3682 26.8311 18.1264 24.0348 20.9505C21.2342 23.7746 19.4995 27.6861 19.5017 31.9863C19.4995 36.2865 21.2342 40.2023 24.0348 43.0221C26.8311 45.8484 30.7191 47.6044 35 47.6044C39.2789 47.6044 43.169 45.8484 45.9653 43.0221C48.7658 40.2023 50.5005 36.2865 50.4983 31.9863C50.5005 27.6861 48.7658 23.7746 45.9653 20.9505C43.169 18.1263 39.2789 16.3682 35 16.3704ZM43.0707 40.1531C40.9964 42.2444 38.1552 43.5284 35 43.5284C31.8426 43.5284 29.0037 42.2444 26.9272 40.1531C24.8571 38.0617 23.5776 35.1863 23.5754 31.9863C23.5776 28.7883 24.8571 25.913 26.9272 23.8195C29.0037 21.7282 31.8426 20.4464 35 20.4442C38.1552 20.4464 40.9964 21.7282 43.0707 23.8195C45.1428 25.9131 46.4225 28.7885 46.4245 31.9863C46.4225 35.1863 45.1429 38.0617 43.0707 40.1531ZM53.6194 20.0233H58.3233V24.7272H53.6194V20.0233Z" fill="black"/>
</svg>
