<svg width="21" height="21" viewBox="0 0 35 32" fill="none" xmlns="http://www.w3.org/2000/svg">
<mask id="path-1-inside-1_33_9" fill="white">
<path fill-rule="evenodd" clip-rule="evenodd" d="M21.4289 12.0922L17.4999 0L13.5709 12.0922L0.856449 12.0922L11.1427 19.5656L7.2137 31.6578L17.4999 24.1844L27.7862 31.6578L23.8572 19.5656L34.1434 12.0922L21.4289 12.0922ZM12.9999 16V19H21.9999V16H12.9999Z"/>
</mask>
<path fill-rule="evenodd" clip-rule="evenodd" d="M21.4289 12.0922L17.4999 0L13.5709 12.0922L0.856449 12.0922L11.1427 19.5656L7.2137 31.6578L17.4999 24.1844L27.7862 31.6578L23.8572 19.5656L34.1434 12.0922L21.4289 12.0922ZM12.9999 16V19H21.9999V16H12.9999Z" fill="black"/>
<path d="M17.4999 0L19.4021 -0.618034L17.4999 -6.47214L15.5978 -0.618034L17.4999 0ZM21.4289 12.0922L19.5268 12.7102L19.9758 14.0922L21.4289 14.0922L21.4289 12.0922ZM13.5709 12.0922L13.5709 14.0922L15.024 14.0922L15.4731 12.7102L13.5709 12.0922ZM0.856449 12.0922L0.856449 10.0922L-5.29892 10.0922L-0.319121 13.7102L0.856449 12.0922ZM11.1427 19.5656L13.0448 20.1836L13.4938 18.8017L12.3183 17.9476L11.1427 19.5656ZM7.2137 31.6578L5.31158 31.0398L3.40947 36.8939L8.38927 33.2758L7.2137 31.6578ZM17.4999 24.1844L18.6755 22.5664L17.4999 21.7123L16.3244 22.5664L17.4999 24.1844ZM27.7862 31.6578L26.6106 33.2758L31.5904 36.8939L29.6883 31.0398L27.7862 31.6578ZM23.8572 19.5656L22.6816 17.9476L21.506 18.8017L21.9551 20.1836L23.8572 19.5656ZM34.1434 12.0922L35.319 13.7102L40.2988 10.0922L34.1434 10.0922L34.1434 12.0922ZM12.9999 19H10.9999V21H12.9999V19ZM12.9999 16V14H10.9999V16H12.9999ZM21.9999 19V21H23.9999V19H21.9999ZM21.9999 16H23.9999V14H21.9999V16ZM15.5978 0.618034L19.5268 12.7102L23.331 11.4742L19.4021 -0.618034L15.5978 0.618034ZM15.4731 12.7102L19.4021 0.618034L15.5978 -0.618034L11.6688 11.4742L15.4731 12.7102ZM0.856449 14.0922L13.5709 14.0922L13.5709 10.0922L0.856449 10.0922L0.856449 14.0922ZM12.3183 17.9476L2.03202 10.4742L-0.319121 13.7102L9.96712 21.1836L12.3183 17.9476ZM9.11581 32.2758L13.0448 20.1836L9.24058 18.9476L5.31158 31.0398L9.11581 32.2758ZM16.3244 22.5664L6.03813 30.0398L8.38927 33.2758L18.6755 25.8024L16.3244 22.5664ZM28.9618 30.0398L18.6755 22.5664L16.3244 25.8024L26.6106 33.2758L28.9618 30.0398ZM21.9551 20.1836L25.8841 32.2758L29.6883 31.0398L25.7593 18.9476L21.9551 20.1836ZM32.9679 10.4742L22.6816 17.9476L25.0328 21.1836L35.319 13.7102L32.9679 10.4742ZM21.4289 14.0922L34.1434 14.0922L34.1434 10.0922L21.4289 10.0922L21.4289 14.0922ZM14.9999 19V16H10.9999V19H14.9999ZM21.9999 17H12.9999V21H21.9999V17ZM19.9999 16V19H23.9999V16H19.9999ZM12.9999 18H21.9999V14H12.9999V18Z" fill="black" mask="url(#path-1-inside-1_33_9)"/>
</svg>
