<svg width="36" height="36" viewBox="0 0 36 36" fill="none" xmlns="http://www.w3.org/2000/svg">
<path d="M27.14 20.4643H22.943V24.4334C22.943 24.5134 22.943 24.5867 22.943 24.6633C22.943 24.73 22.943 24.7933 22.9403 24.86C22.9385 25.0029 22.9261 25.1454 22.9033 25.2865C22.8785 25.4267 22.8336 25.5625 22.77 25.6898C22.7049 25.8169 22.6199 25.9328 22.5181 26.033C22.4158 26.1332 22.2991 26.2175 22.1718 26.283C22.0429 26.3457 21.906 26.3906 21.7649 26.4163C21.6234 26.4385 21.4806 26.4507 21.3373 26.4529C21.2707 26.4529 21.206 26.4563 21.1407 26.4563H15.7416C15.675 26.4563 15.6106 26.4529 15.545 26.4529C15.4018 26.4507 15.2589 26.4385 15.1174 26.4163C14.9765 26.3906 14.8397 26.3457 14.7108 26.283C14.5836 26.2175 14.4668 26.1332 14.3646 26.033C14.2628 25.9329 14.1777 25.817 14.1127 25.6898C14.049 25.5625 14.0041 25.4267 13.9793 25.2865C13.9564 25.1455 13.9439 25.0029 13.942 24.86C13.942 24.7933 13.9394 24.73 13.9394 24.6633C13.9394 24.5867 13.9394 24.5134 13.9394 24.4334V20.4643H9.67599C9.24475 20.4643 8.69155 19.5345 9.20943 19.018C9.64966 18.5814 16.5688 11.683 18.0168 10.2466C18.1232 10.1158 18.2735 10.0282 18.4397 10H18.451C18.5948 10.0078 18.7283 10.077 18.8176 10.19C20.2656 11.6263 27.2083 18.5814 27.6489 19.018C28.1671 19.5345 27.7332 20.4643 27.14 20.4643Z" fill="#020202"/>
</svg>
